<svg width="44" height="47" viewBox="0 0 44 47" fill="none" xmlns="http://www.w3.org/2000/svg">
<g clip-path="url(#clip0_3_12)">
<path d="M42 36.5536C42 38.0893 40.341 39.052 39.0077 38.2901L28.9923 32.567C28.3774 32.2157 27.6226 32.2157 27.0077 32.567L16.9923 38.2901C15.659 39.052 14 38.0893 14 36.5536V2C14 0.89543 14.8954 -1.50486e-07 16 0L40 3.26974e-06C41.1046 3.42023e-06 42 0.895434 42 2V36.5536Z" fill="url(#paint0_linear_3_12)"/>
<path d="M12 2C12 0.895431 12.8954 0 14 0H42C43.1046 0 44 0.895431 44 2C44 3.10457 43.1046 4 42 4H14C12.8954 4 12 3.10457 12 2Z" fill="url(#paint1_linear_3_12)"/>
<path d="M30 44.5536C30 46.0893 28.341 47.052 27.0077 46.2901L16.9923 40.567C16.3774 40.2157 15.6226 40.2157 15.0077 40.567L4.99228 46.2901C3.65896 47.052 2 46.0893 2 44.5536V10C2 8.89543 2.89543 8 4 8H28C29.1046 8 30 8.89543 30 10V44.5536Z" fill="url(#paint2_linear_3_12)"/>
<path d="M0 10C0 8.89543 0.895431 8 2 8H30C31.1046 8 32 8.89543 32 10C32 11.1046 31.1046 12 30 12H2C0.895431 12 0 11.1046 0 10Z" fill="url(#paint3_linear_3_12)"/>
</g>
<defs>
<linearGradient id="paint0_linear_3_12" x1="28" y1="0" x2="28" y2="38.5566" gradientUnits="userSpaceOnUse">
<stop stop-color="white" stop-opacity="0.5"/>
<stop offset="1" stop-color="white" stop-opacity="0"/>
</linearGradient>
<linearGradient id="paint1_linear_3_12" x1="28" y1="0" x2="28" y2="4" gradientUnits="userSpaceOnUse">
<stop stop-color="white" stop-opacity="0.5"/>
<stop offset="1" stop-color="white" stop-opacity="0"/>
</linearGradient>
<linearGradient id="paint2_linear_3_12" x1="16" y1="8" x2="16" y2="46.5566" gradientUnits="userSpaceOnUse">
<stop stop-color="white" stop-opacity="0.5"/>
<stop offset="1" stop-color="white" stop-opacity="0"/>
</linearGradient>
<linearGradient id="paint3_linear_3_12" x1="14.1176" y1="8" x2="14.1176" y2="12" gradientUnits="userSpaceOnUse">
<stop stop-color="white" stop-opacity="0.8"/>
<stop offset="1" stop-color="white" stop-opacity="0"/>
</linearGradient>
<clipPath id="clip0_3_12">
<rect width="44" height="47" fill="white"/>
</clipPath>
</defs>
</svg>
