<?xml version="1.0" encoding="utf-8"?>
<!-- Generator: Adobe Illustrator 26.5.0, SVG Export Plug-In . SVG Version: 6.00 Build 0)  -->
<svg version="1.1" id="Capa_1" xmlns="http://www.w3.org/2000/svg" xmlns:xlink="http://www.w3.org/1999/xlink" x="0px" y="0px"
	 viewBox="0 0 64 58" style="enable-background:new 0 0 64 58;" xml:space="preserve">
<style type="text/css">
	.st0{fill-rule:evenodd;clip-rule:evenodd;fill:#C065FC;}
</style>
<path class="st0" d="M47.3,0.7l-32,0.4L0.1,27.6l14.6,29.6l32.8,0.1l16.3-28.2L47.3,0.7z M54.5,43.3l7.9-13.7l-12.7-0.1l-8,13.9
	L54.5,43.3z M53.9,44.3l-6.9,12l-12.7-0.1l6.8-11.8L53.9,44.3z M40,44.5l-6.8,11.8l-17.3-0.1l6.7-11.6L40,44.5z M21.7,44.1
	l-6.6,11.5L7.3,40l6.2-10.8L21.7,44.1z M14.2,28.2l8.1,14.9L30.5,29l-8.2-14.6h-0.1L14.2,28.2z M13,28.2L6.8,38.9L1.2,27.6l5.9-10.3
	L13,28.2z M7.7,16.3l5.9,10.8l8-13.8h0.1l-6-10.7L7.7,16.3z M23.1,43.6l17.4-0.2l8-13.9l-17.3-0.1L23.1,43.6z M48.4,28.5l-17.1-0.1
	l-7.9-14.1L40,14L48.4,28.5z M39.4,13.1l-16.6,0.3L16.5,2.1l16.4-0.2L39.4,13.1z M34.1,1.9L40.6,13l12.6-0.2l-6.5-11L34.1,1.9z
	 M53.8,13.8L41.1,14l8.5,14.5l12.8,0.1L53.8,13.8z"/>
</svg>
