<svg width="64" height="64" viewBox="0 0 64 64" fill="none" xmlns="http://www.w3.org/2000/svg">
<path d="M56 32C56 40.8366 48.8366 48 40 48C31.1634 48 24 40.8366 24 32C24 23.1634 31.1634 16 40 16C48.8366 16 56 23.1634 56 32Z" fill="url(#paint0_linear_21_127)"/>
<path d="M8 28C8 25.7909 9.79086 24 12 24H36C38.2091 24 40 25.7909 40 28V52C40 54.2091 38.2091 56 36 56H12C9.79086 56 8 54.2091 8 52V28Z" fill="url(#paint1_linear_21_127)"/>
<path d="M28.4222 10.1554C29.8963 7.20723 34.1036 7.20722 35.5777 10.1554L49.1055 37.2111C50.4353 39.8707 48.5013 43 45.5278 43H18.4721C15.4986 43 13.5646 39.8708 14.8944 37.2111L28.4222 10.1554Z" fill="url(#paint2_linear_21_127)"/>
<defs>
<linearGradient id="paint0_linear_21_127" x1="40" y1="16" x2="40" y2="48" gradientUnits="userSpaceOnUse">
<stop stop-color="white" stop-opacity="0.5"/>
<stop offset="1" stop-color="white" stop-opacity="0"/>
</linearGradient>
<linearGradient id="paint1_linear_21_127" x1="22.1176" y1="24" x2="22.1176" y2="56" gradientUnits="userSpaceOnUse">
<stop stop-color="white" stop-opacity="0.8"/>
<stop offset="1" stop-color="white" stop-opacity="0"/>
</linearGradient>
<linearGradient id="paint2_linear_21_127" x1="31.9999" y1="7.94427" x2="31.9999" y2="43" gradientUnits="userSpaceOnUse">
<stop stop-color="white" stop-opacity="0.5"/>
<stop offset="1" stop-color="white" stop-opacity="0"/>
</linearGradient>
</defs>
</svg>
