<svg width="297" height="6" viewBox="0 0 297 6" fill="none" xmlns="http://www.w3.org/2000/svg">
<path d="M0.333333 3C0.333333 4.47276 1.52724 5.66667 3 5.66667C4.47276 5.66667 5.66667 4.47276 5.66667 3C5.66667 1.52724 4.47276 0.333333 3 0.333333C1.52724 0.333333 0.333333 1.52724 0.333333 3ZM291.333 3C291.333 4.47276 292.527 5.66667 294 5.66667C295.473 5.66667 296.667 4.47276 296.667 3C296.667 1.52724 295.473 0.333333 294 0.333333C292.527 0.333333 291.333 1.52724 291.333 3ZM3 3.5H294V2.5H3V3.5Z" fill="white"/>
</svg>
