<svg width="48" height="72" viewBox="0 0 48 72" fill="none" xmlns="http://www.w3.org/2000/svg">
<path fill-rule="evenodd" clip-rule="evenodd" d="M18 24C18 20.6863 20.6863 18 24 18C27.3137 18 30 20.6863 30 24V48C30 51.3137 27.3137 54 24 54C20.6863 54 18 51.3137 18 48V24ZM28.8 24V48C28.8 50.651 26.651 52.8 24 52.8C21.349 52.8 19.2 50.651 19.2 48V24C19.2 21.349 21.349 19.2 24 19.2C26.651 19.2 28.8 21.349 28.8 24Z" fill="url(#paint0_radial_500_7057)"/>
<path fill-rule="evenodd" clip-rule="evenodd" d="M24 14.4C18.6981 14.4 14.4 18.6981 14.4 24V48C14.4 53.3019 18.6981 57.6 24 57.6C29.3019 57.6 33.6 53.3019 33.6 48V24C33.6 18.6981 29.3019 14.4 24 14.4ZM32.4 48V24C32.4 19.3608 28.6392 15.6 24 15.6C19.3608 15.6 15.6 19.3608 15.6 24V48C15.6 52.6392 19.3608 56.4 24 56.4C28.6392 56.4 32.4 52.6392 32.4 48Z" fill="url(#paint1_radial_500_7057)"/>
<path fill-rule="evenodd" clip-rule="evenodd" d="M10.8 24C10.8 16.7098 16.7098 10.8 24 10.8C31.2902 10.8 37.2 16.7098 37.2 24V48C37.2 55.2902 31.2902 61.2 24 61.2C16.7098 61.2 10.8 55.2902 10.8 48V24ZM36 24V48C36 54.6274 30.6274 60 24 60C17.3726 60 12 54.6274 12 48V24C12 17.3726 17.3726 12 24 12C30.6274 12 36 17.3726 36 24Z" fill="url(#paint2_radial_500_7057)"/>
<path fill-rule="evenodd" clip-rule="evenodd" d="M24 7.2C14.7216 7.2 7.2 14.7216 7.2 24V48C7.2 57.2784 14.7216 64.8 24 64.8C33.2784 64.8 40.8 57.2784 40.8 48V24C40.8 14.7216 33.2784 7.2 24 7.2ZM39.6 48V24C39.6 15.3844 32.6156 8.4 24 8.4C15.3844 8.4 8.4 15.3844 8.4 24V48C8.4 56.6156 15.3844 63.6 24 63.6C32.6156 63.6 39.6 56.6156 39.6 48Z" fill="url(#paint3_radial_500_7057)"/>
<path fill-rule="evenodd" clip-rule="evenodd" d="M3.6 24C3.6 12.7334 12.7334 3.6 24 3.6C35.2666 3.6 44.4 12.7334 44.4 24V48C44.4 59.2666 35.2666 68.4 24 68.4C12.7334 68.4 3.6 59.2666 3.6 48V24ZM43.2 24V48C43.2 58.6039 34.6039 67.2 24 67.2C13.3961 67.2 4.8 58.6039 4.8 48V24C4.8 13.3961 13.3961 4.8 24 4.8C34.6039 4.8 43.2 13.3961 43.2 24Z" fill="url(#paint4_radial_500_7057)"/>
<path fill-rule="evenodd" clip-rule="evenodd" d="M0 24C0 10.7452 10.7452 0 24 0C37.2548 0 48 10.7452 48 24V48C48 61.2548 37.2548 72 24 72C10.7452 72 0 61.2548 0 48V24ZM46.8 24V48C46.8 60.5921 36.5921 70.8 24 70.8C11.4079 70.8 1.2 60.5921 1.2 48V24C1.2 11.4079 11.4079 1.2 24 1.2C36.5921 1.2 46.8 11.4079 46.8 24Z" fill="url(#paint5_radial_500_7057)"/>
<defs>
<radialGradient id="paint0_radial_500_7057" cx="0" cy="0" r="1" gradientUnits="userSpaceOnUse" gradientTransform="translate(24 36) rotate(78.6901) scale(48.9506 32.6337)">
<stop stop-color="white"/>
<stop offset="1" stop-color="white" stop-opacity="0"/>
</radialGradient>
<radialGradient id="paint1_radial_500_7057" cx="0" cy="0" r="1" gradientUnits="userSpaceOnUse" gradientTransform="translate(24 36) rotate(78.6901) scale(48.9506 32.6337)">
<stop stop-color="white"/>
<stop offset="1" stop-color="white" stop-opacity="0"/>
</radialGradient>
<radialGradient id="paint2_radial_500_7057" cx="0" cy="0" r="1" gradientUnits="userSpaceOnUse" gradientTransform="translate(24 36) rotate(78.6901) scale(48.9506 32.6337)">
<stop stop-color="white"/>
<stop offset="1" stop-color="white" stop-opacity="0"/>
</radialGradient>
<radialGradient id="paint3_radial_500_7057" cx="0" cy="0" r="1" gradientUnits="userSpaceOnUse" gradientTransform="translate(24 36) rotate(78.6901) scale(48.9506 32.6337)">
<stop stop-color="white"/>
<stop offset="1" stop-color="white" stop-opacity="0"/>
</radialGradient>
<radialGradient id="paint4_radial_500_7057" cx="0" cy="0" r="1" gradientUnits="userSpaceOnUse" gradientTransform="translate(24 36) rotate(78.6901) scale(48.9506 32.6337)">
<stop stop-color="white"/>
<stop offset="1" stop-color="white" stop-opacity="0"/>
</radialGradient>
<radialGradient id="paint5_radial_500_7057" cx="0" cy="0" r="1" gradientUnits="userSpaceOnUse" gradientTransform="translate(24 36) rotate(78.6901) scale(48.9506 32.6337)">
<stop stop-color="white"/>
<stop offset="1" stop-color="white" stop-opacity="0"/>
</radialGradient>
</defs>
</svg>
