<svg width="76" height="76" viewBox="0 0 76 76" fill="none" xmlns="http://www.w3.org/2000/svg">
<rect width="76" height="76" rx="38" fill="#171717"/>
<path d="M49.7362 54.4956L36.353 21.5H35.0649L31.479 29.8376L41.384 54.4956H49.7362Z" fill="white"/>
<path d="M17.961 54.4957H28.0635V54.3699C27.7449 54.2801 27.2288 54.0869 26.7306 53.6692C26.0439 53.0942 25.7702 52.4158 25.5817 51.9307C25.2047 50.9559 25.2092 50.1248 25.2226 49.5723C25.2316 49.0601 25.3034 48.2965 25.5951 47.4115L25.5099 47.389C24.6482 48.5166 23.6922 49.7385 22.6375 51.0322C21.6502 52.2451 21.0757 52.9145 20.0883 53.5074C19.267 54.0016 18.4906 54.2442 17.9565 54.3655" fill="white"/>
<path d="M41.3838 54.4957H38.2512V54.2845C38.5385 54.2486 38.7584 54.1722 38.902 54.1183C39.0232 54.0689 39.647 53.8173 40.0958 53.2064C40.2035 53.0627 40.3067 52.9189 40.3696 52.7033C40.4144 52.5191 40.4324 52.3215 40.4234 52.1058" fill="white"/>
<path d="M49.7363 54.4957H52.2765V54.3115C52.1015 54.2576 51.8591 54.1678 51.5764 54.0375C51.2892 53.8983 50.6878 53.5838 49.8889 52.7976C48.9374 51.8677 48.2373 50.7986 48.2373 50.7986" fill="white"/>
<path d="M55.158 54.5001C56.7518 54.5001 58.0438 53.2068 58.0438 51.6116C58.0438 50.0163 56.7518 48.723 55.158 48.723C53.5642 48.723 52.2722 50.0163 52.2722 51.6116C52.2722 53.2068 53.5642 54.5001 55.158 54.5001Z" fill="white"/>
</svg>
