<svg width="66" height="66" viewBox="0 0 66 66" fill="none" xmlns="http://www.w3.org/2000/svg">
<path d="M49 25L50.4434 22.5H47.5566L49 25ZM17 49L15.7336 51.5941L18.6134 51.3938L17 49ZM48.75 17V22.75H49.25V17H48.75ZM48.75 45V49H49.25V45H48.75ZM48.75 35V45H49.25V35H48.75ZM17.25 33V17H16.75V33H17.25ZM17.25 41V33H16.75V41H17.25ZM33 64.75C25.0514 64.75 18.4776 58.8616 17.4037 51.2091L16.9085 51.2786C18.0166 59.1745 24.7986 65.25 33 65.25V64.75ZM33 65.25C41.9746 65.25 49.25 57.9746 49.25 49H48.75C48.75 57.6985 41.6985 64.75 33 64.75V65.25ZM33 1.25C41.6985 1.25 48.75 8.30152 48.75 17H49.25C49.25 8.02537 41.9746 0.75 33 0.75V1.25ZM33 0.75C24.0254 0.75 16.75 8.02537 16.75 17H17.25C17.25 8.30152 24.3015 1.25 33 1.25V0.75Z" fill="url(#paint0_linear_604_3)"/>
<path d="M25 17L22.5 15.5566V18.4434L25 17ZM49 49L51.5941 50.2664L51.3938 47.3866L49 49ZM17 17.25H22.75V16.75H17V17.25ZM45 17.25H49V16.75H45V17.25ZM35 17.25H45V16.75H35V17.25ZM33 48.75H17V49.25H33V48.75ZM41 48.75H33V49.25H41V48.75ZM64.75 33C64.75 40.9486 58.8616 47.5224 51.2091 48.5963L51.2786 49.0915C59.1745 47.9834 65.25 41.2014 65.25 33H64.75ZM65.25 33C65.25 24.0254 57.9746 16.75 49 16.75V17.25C57.6985 17.25 64.75 24.3015 64.75 33H65.25ZM1.25 33C1.25 24.3015 8.30152 17.25 17 17.25V16.75C8.02537 16.75 0.75 24.0254 0.75 33H1.25ZM0.75 33C0.75 41.9746 8.02537 49.25 17 49.25V48.75C8.30152 48.75 1.25 41.6985 1.25 33H0.75Z" fill="url(#paint1_linear_604_3)"/>
<path d="M33 21L35.6942 29.2918H44.4127L37.3593 34.4164L40.0534 42.7082L33 37.5836L25.9466 42.7082L28.6408 34.4164L21.5873 29.2918H30.3059L33 21Z" fill="url(#paint2_radial_604_3)"/>
<defs>
<linearGradient id="paint0_linear_604_3" x1="21" y1="0.999999" x2="59.4" y2="69.8" gradientUnits="userSpaceOnUse">
<stop stop-color="white"/>
<stop offset="1" stop-color="white" stop-opacity="0"/>
</linearGradient>
<linearGradient id="paint1_linear_604_3" x1="0.999999" y1="45" x2="69.8" y2="6.6" gradientUnits="userSpaceOnUse">
<stop stop-color="white"/>
<stop offset="1" stop-color="white" stop-opacity="0"/>
</linearGradient>
<radialGradient id="paint2_radial_604_3" cx="0" cy="0" r="1" gradientUnits="userSpaceOnUse" gradientTransform="translate(33 33) rotate(90) scale(19.3333 19.3333)">
<stop stop-color="white"/>
<stop offset="1" stop-color="white" stop-opacity="0"/>
</radialGradient>
</defs>
</svg>
